<mxfile host="app.diagrams.net" modified="2023-04-20T04:51:53.102Z" agent="Mozilla/5.0 (Windows NT 10.0; Win64; x64; rv:109.0) Gecko/20100101 Firefox/112.0" etag="KTngcVFy5t206u1B1LOE" version="21.2.1" type="github">
  <diagram id="C5RBs43oDa-KdzZeNtuy" name="Page-1">
    <mxGraphModel dx="874" dy="510" grid="1" gridSize="10" guides="1" tooltips="1" connect="1" arrows="1" fold="1" page="1" pageScale="1" pageWidth="827" pageHeight="1169" math="0" shadow="0">
      <root>
        <mxCell id="WIyWlLk6GJQsqaUBKTNV-0" />
        <mxCell id="WIyWlLk6GJQsqaUBKTNV-1" parent="WIyWlLk6GJQsqaUBKTNV-0" />
        <mxCell id="sDt1pW3LsQyAZ5J-yxU1-7" value="" style="edgeStyle=orthogonalEdgeStyle;rounded=0;orthogonalLoop=1;jettySize=auto;html=1;" edge="1" parent="WIyWlLk6GJQsqaUBKTNV-1" source="sDt1pW3LsQyAZ5J-yxU1-5" target="sDt1pW3LsQyAZ5J-yxU1-6">
          <mxGeometry relative="1" as="geometry" />
        </mxCell>
        <mxCell id="sDt1pW3LsQyAZ5J-yxU1-5" value="&lt;font style=&quot;font-size: 29px;&quot;&gt;Inicio&lt;/font&gt;" style="rounded=0;whiteSpace=wrap;html=1;" vertex="1" parent="WIyWlLk6GJQsqaUBKTNV-1">
          <mxGeometry x="357.5" y="80" width="120" height="60" as="geometry" />
        </mxCell>
        <mxCell id="sDt1pW3LsQyAZ5J-yxU1-9" value="" style="edgeStyle=orthogonalEdgeStyle;rounded=0;orthogonalLoop=1;jettySize=auto;html=1;" edge="1" parent="WIyWlLk6GJQsqaUBKTNV-1" source="sDt1pW3LsQyAZ5J-yxU1-6" target="sDt1pW3LsQyAZ5J-yxU1-8">
          <mxGeometry relative="1" as="geometry" />
        </mxCell>
        <mxCell id="sDt1pW3LsQyAZ5J-yxU1-6" value="&lt;font style=&quot;font-size: 18px;&quot;&gt;&lt;b&gt;Leer 3 numeros &lt;br&gt;&lt;/b&gt;&lt;/font&gt;" style="shape=parallelogram;perimeter=parallelogramPerimeter;whiteSpace=wrap;html=1;fixedSize=1;rounded=0;" vertex="1" parent="WIyWlLk6GJQsqaUBKTNV-1">
          <mxGeometry x="325" y="230" width="185" height="80" as="geometry" />
        </mxCell>
        <mxCell id="sDt1pW3LsQyAZ5J-yxU1-11" value="" style="edgeStyle=orthogonalEdgeStyle;rounded=0;orthogonalLoop=1;jettySize=auto;html=1;entryX=0;entryY=0;entryDx=0;entryDy=0;" edge="1" parent="WIyWlLk6GJQsqaUBKTNV-1" source="sDt1pW3LsQyAZ5J-yxU1-8" target="sDt1pW3LsQyAZ5J-yxU1-10">
          <mxGeometry relative="1" as="geometry">
            <mxPoint x="600" y="440" as="targetPoint" />
            <Array as="points">
              <mxPoint x="610" y="480" />
            </Array>
          </mxGeometry>
        </mxCell>
        <mxCell id="sDt1pW3LsQyAZ5J-yxU1-15" value="" style="edgeStyle=orthogonalEdgeStyle;rounded=0;orthogonalLoop=1;jettySize=auto;html=1;" edge="1" parent="WIyWlLk6GJQsqaUBKTNV-1" source="sDt1pW3LsQyAZ5J-yxU1-8" target="sDt1pW3LsQyAZ5J-yxU1-14">
          <mxGeometry relative="1" as="geometry" />
        </mxCell>
        <mxCell id="sDt1pW3LsQyAZ5J-yxU1-8" value="&lt;div style=&quot;font-size: 18px;&quot;&gt;&lt;font style=&quot;font-size: 18px;&quot;&gt;CONDICION&lt;/font&gt;&lt;/div&gt;&lt;div style=&quot;font-size: 28px;&quot;&gt;&lt;font style=&quot;font-size: 28px;&quot;&gt;1 = +&lt;br&gt;&lt;/font&gt;&lt;/div&gt;" style="rhombus;whiteSpace=wrap;html=1;rounded=0;" vertex="1" parent="WIyWlLk6GJQsqaUBKTNV-1">
          <mxGeometry x="301" y="390" width="209" height="180" as="geometry" />
        </mxCell>
        <mxCell id="sDt1pW3LsQyAZ5J-yxU1-10" value="SUMAR LSO TRES NUMEROS " style="whiteSpace=wrap;html=1;rounded=0;" vertex="1" parent="WIyWlLk6GJQsqaUBKTNV-1">
          <mxGeometry x="610" y="435" width="190" height="90" as="geometry" />
        </mxCell>
        <mxCell id="sDt1pW3LsQyAZ5J-yxU1-14" value="" style="whiteSpace=wrap;html=1;rounded=0;" vertex="1" parent="WIyWlLk6GJQsqaUBKTNV-1">
          <mxGeometry x="70" y="440" width="160" height="70" as="geometry" />
        </mxCell>
      </root>
    </mxGraphModel>
  </diagram>
</mxfile>
